<svg width="26" height="22" viewBox="0 0 26 22" fill="none" xmlns="http://www.w3.org/2000/svg">
<path fill-rule="evenodd" clip-rule="evenodd" d="M8.84861 0.48983C9.04953 0.183811 9.38778 0 9.75 0H16.25C16.6122 0 16.9505 0.183811 17.1514 0.48983L18.9964 3.3H22.75C23.612 3.3 24.4386 3.64768 25.0481 4.26655C25.6576 4.88542 26 5.72479 26 6.6V18.7C26 19.5752 25.6576 20.4146 25.0481 21.0335C24.4386 21.6523 23.612 22 22.75 22H3.25C2.38805 22 1.5614 21.6523 0.951903 21.0335C0.34241 20.4146 0 19.5752 0 18.7V6.6C0 5.72479 0.34241 4.88542 0.951903 4.26655C1.5614 3.64768 2.38805 3.3 3.25 3.3H7.00355L8.84861 0.48983ZM10.3298 2.2L8.48472 5.01017C8.2838 5.31619 7.94555 5.5 7.58333 5.5H3.25C2.96268 5.5 2.68713 5.61589 2.48397 5.82218C2.2808 6.02847 2.16667 6.30826 2.16667 6.6V18.7C2.16667 18.9917 2.2808 19.2715 2.48397 19.4778C2.68713 19.6841 2.96268 19.8 3.25 19.8H22.75C23.0373 19.8 23.3129 19.6841 23.516 19.4778C23.7192 19.2715 23.8333 18.9917 23.8333 18.7V6.6C23.8333 6.30826 23.7192 6.02847 23.516 5.82218C23.3129 5.61589 23.0373 5.5 22.75 5.5H18.4167C18.0545 5.5 17.7162 5.31619 17.5153 5.01017L15.6702 2.2H10.3298Z" fill="#E7F2F3"/>
<path fill-rule="evenodd" clip-rule="evenodd" d="M13 8.8C11.2051 8.8 9.75 10.2775 9.75 12.1C9.75 13.9225 11.2051 15.4 13 15.4C14.7949 15.4 16.25 13.9225 16.25 12.1C16.25 10.2775 14.7949 8.8 13 8.8ZM7.58333 12.1C7.58333 9.06243 10.0085 6.6 13 6.6C15.9915 6.6 18.4167 9.06243 18.4167 12.1C18.4167 15.1376 15.9915 17.6 13 17.6C10.0085 17.6 7.58333 15.1376 7.58333 12.1Z" fill="#E7F2F3"/>
</svg>
