<svg width="32" height="32" viewBox="0 0 32 32" fill="none" xmlns="http://www.w3.org/2000/svg">
<path fill-rule="evenodd" clip-rule="evenodd" d="M16 2.90909C8.77009 2.90909 2.90909 8.77009 2.90909 16C2.90909 23.2299 8.77009 29.0909 16 29.0909C23.2299 29.0909 29.0909 23.2299 29.0909 16C29.0909 8.77009 23.2299 2.90909 16 2.90909ZM0 16C0 7.16344 7.16344 0 16 0C24.8366 0 32 7.16344 32 16C32 24.8366 24.8366 32 16 32C7.16344 32 0 24.8366 0 16Z" fill="#E7F2F3"/>
<path fill-rule="evenodd" clip-rule="evenodd" d="M23.1926 8.80675C23.5822 9.19632 23.7183 9.77257 23.544 10.2952L20.4604 19.5461C20.3156 19.9805 19.9748 20.3213 19.5405 20.4661L10.2896 23.5497C9.76688 23.7239 9.19064 23.5879 8.80107 23.1983C8.41149 22.8088 8.27546 22.2325 8.44968 21.7098L11.5333 12.4589C11.6781 12.0246 12.0189 11.6838 12.4533 11.539L21.7042 8.45536C22.2268 8.28114 22.8031 8.41717 23.1926 8.80675ZM14.0631 14.0688L12.1294 19.87L17.9306 17.9363L19.8643 12.1351L14.0631 14.0688Z" fill="#E7F2F3"/>
</svg>
