<svg width="28" height="28" viewBox="0 0 28 28" fill="none" xmlns="http://www.w3.org/2000/svg">
<path fill-rule="evenodd" clip-rule="evenodd" d="M22.0091 13.1C22.5062 12.603 23.312 12.603 23.809 13.1L27.6272 16.9182C28.1243 17.4153 28.1243 18.2211 27.6272 18.7181L18.7181 27.6272C18.2211 28.1243 17.4153 28.1243 16.9182 27.6272L13.1 23.809C12.603 23.312 12.603 22.5062 13.1 22.0091L22.0091 13.1ZM15.7999 22.9091L17.8182 24.9274L24.9274 17.8182L22.9091 15.7999L15.7999 22.9091Z" fill="#E7F2F3"/>
<path fill-rule="evenodd" clip-rule="evenodd" d="M0.372799 0.372799C0.686313 0.0592854 1.14039 -0.0684762 1.57139 0.0355577L20.0259 4.4901C20.5077 4.60639 20.8781 4.99174 20.9753 5.4777L22.8844 15.0231C22.9679 15.4404 22.8372 15.8718 22.5363 16.1727L16.1727 22.5363C15.8718 22.8372 15.4404 22.9679 15.0231 22.8844L5.4777 20.9753C4.99174 20.8781 4.60639 20.5077 4.4901 20.0259L0.0355577 1.57139C-0.0684762 1.14039 0.0592854 0.686313 0.372799 0.372799ZM2.99862 2.99862L6.77381 18.6387L14.8544 20.2548L20.2548 14.8544L18.6387 6.77381L2.99862 2.99862Z" fill="#E7F2F3"/>
<path fill-rule="evenodd" clip-rule="evenodd" d="M0.372799 0.372799C0.86983 -0.124232 1.67565 -0.124258 2.17268 0.372773L11.8276 10.0277C12.3246 10.5247 12.3246 11.3306 11.8276 11.8276C11.3306 12.3246 10.5247 12.3246 10.0277 11.8276L0.372773 2.17268C-0.124258 1.67565 -0.124232 0.86983 0.372799 0.372799Z" fill="#E7F2F3"/>
<path fill-rule="evenodd" clip-rule="evenodd" d="M12.7273 11.4545C12.0244 11.4545 11.4545 12.0244 11.4545 12.7273C11.4545 13.4302 12.0244 14 12.7273 14C13.4302 14 14 13.4302 14 12.7273C14 12.0244 13.4302 11.4545 12.7273 11.4545ZM8.90909 12.7273C8.90909 10.6185 10.6185 8.90909 12.7273 8.90909C14.836 8.90909 16.5455 10.6185 16.5455 12.7273C16.5455 14.836 14.836 16.5455 12.7273 16.5455C10.6185 16.5455 8.90909 14.836 8.90909 12.7273Z" fill="#E7F2F3"/>
</svg>
