<svg width="32" height="32" viewBox="0 0 32 32" fill="none" xmlns="http://www.w3.org/2000/svg">
<path fill-rule="evenodd" clip-rule="evenodd" d="M16 2.90909C8.77009 2.90909 2.90909 8.77009 2.90909 16C2.90909 23.2299 8.77009 29.0909 16 29.0909C23.2299 29.0909 29.0909 23.2299 29.0909 16C29.0909 8.77009 23.2299 2.90909 16 2.90909ZM0 16C0 7.16344 7.16344 0 16 0C24.8366 0 32 7.16344 32 16C32 24.8366 24.8366 32 16 32C7.16344 32 0 24.8366 0 16Z" fill="#E7F2F3"/>
<path fill-rule="evenodd" clip-rule="evenodd" d="M16 8.72727C11.9834 8.72727 8.72727 11.9834 8.72727 16C8.72727 20.0166 11.9834 23.2727 16 23.2727C20.0166 23.2727 23.2727 20.0166 23.2727 16C23.2727 11.9834 20.0166 8.72727 16 8.72727ZM5.81818 16C5.81818 10.3767 10.3767 5.81818 16 5.81818C21.6233 5.81818 26.1818 10.3767 26.1818 16C26.1818 21.6233 21.6233 26.1818 16 26.1818C10.3767 26.1818 5.81818 21.6233 5.81818 16Z" fill="#E7F2F3"/>
<path fill-rule="evenodd" clip-rule="evenodd" d="M16 14.5455C15.1967 14.5455 14.5455 15.1967 14.5455 16C14.5455 16.8033 15.1967 17.4545 16 17.4545C16.8033 17.4545 17.4545 16.8033 17.4545 16C17.4545 15.1967 16.8033 14.5455 16 14.5455ZM11.6364 16C11.6364 13.59 13.59 11.6364 16 11.6364C18.41 11.6364 20.3636 13.59 20.3636 16C20.3636 18.41 18.41 20.3636 16 20.3636C13.59 20.3636 11.6364 18.41 11.6364 16Z" fill="#E7F2F3"/>
</svg>
