<svg width="26" height="32" viewBox="0 0 26 32" fill="none" xmlns="http://www.w3.org/2000/svg">
<path fill-rule="evenodd" clip-rule="evenodd" d="M5.05556 24.7273C4.48092 24.7273 3.92982 24.9571 3.52349 25.3663C3.11716 25.7755 2.88889 26.3304 2.88889 26.9091C2.88889 27.7124 2.24219 28.3636 1.44444 28.3636C0.6467 28.3636 0 27.7124 0 26.9091C0 25.5589 0.532637 24.264 1.48074 23.3093C2.42884 22.3545 3.71474 21.8182 5.05556 21.8182H24.5556C25.3533 21.8182 26 22.4694 26 23.2727C26 24.0761 25.3533 24.7273 24.5556 24.7273H5.05556Z" fill="#E7F2F3"/>
<path fill-rule="evenodd" clip-rule="evenodd" d="M5.05556 2.90909C4.48092 2.90909 3.92982 3.13896 3.52349 3.54813C3.11716 3.9573 2.88889 4.51226 2.88889 5.09091V26.9091C2.88889 27.4877 3.11716 28.0427 3.52349 28.4519C3.92982 28.861 4.48092 29.0909 5.05556 29.0909H23.1111V2.90909H5.05556ZM1.48074 1.49109C2.42884 0.536362 3.71474 0 5.05556 0H24.5556C25.3533 0 26 0.651222 26 1.45455V30.5455C26 31.3488 25.3533 32 24.5556 32H5.05556C3.71474 32 2.42884 31.4636 1.48074 30.5089C0.532637 29.5542 0 28.2593 0 26.9091V5.09091C0 3.74072 0.532637 2.44582 1.48074 1.49109Z" fill="#E7F2F3"/>
</svg>
