<svg width="28" height="26" viewBox="0 0 28 26" fill="none" xmlns="http://www.w3.org/2000/svg">
<path fill-rule="evenodd" clip-rule="evenodd" d="M3.81818 2.6C3.48063 2.6 3.15691 2.73696 2.91823 2.98076C2.67954 3.22456 2.54545 3.55522 2.54545 3.9V16.9C2.54545 17.2448 2.67954 17.5754 2.91823 17.8192C3.15691 18.063 3.48063 18.2 3.81818 18.2H5.09091C5.79382 18.2 6.36364 18.782 6.36364 19.5C6.36364 20.218 5.79382 20.8 5.09091 20.8H3.81818C2.80554 20.8 1.83437 20.3891 1.11832 19.6577C0.402272 18.9263 0 17.9343 0 16.9V3.9C0 2.86566 0.402271 1.87368 1.11832 1.14228C1.83437 0.410891 2.80554 0 3.81818 0H24.1818C25.1945 0 26.1656 0.410892 26.8817 1.14228C27.5977 1.87367 28 2.86565 28 3.9V16.9C28 17.9343 27.5977 18.9263 26.8817 19.6577C26.1656 20.3891 25.1945 20.8 24.1818 20.8H22.9091C22.2062 20.8 21.6364 20.218 21.6364 19.5C21.6364 18.782 22.2062 18.2 22.9091 18.2H24.1818C24.5194 18.2 24.8431 18.063 25.0818 17.8192C25.3205 17.5754 25.4545 17.2448 25.4545 16.9V3.9C25.4545 3.55522 25.3205 3.22456 25.0818 2.98076C24.8431 2.73696 24.5194 2.6 24.1818 2.6H3.81818Z" fill="#E7F2F3"/>
<path fill-rule="evenodd" clip-rule="evenodd" d="M14 15.6C14.3777 15.6 14.7359 15.7714 14.9778 16.0678L21.3414 23.8678C21.6575 24.2553 21.7257 24.7946 21.5162 25.2514C21.3068 25.7082 20.8575 26 20.3637 26H7.63638C7.14254 26 6.69328 25.7082 6.48381 25.2514C6.27435 24.7946 6.34249 24.2553 6.65864 23.8678L13.0223 16.0678C13.2641 15.7714 13.6223 15.6 14 15.6ZM10.3537 23.4H17.6463L14 18.9307L10.3537 23.4Z" fill="#E7F2F3"/>
</svg>
