<svg width="28" height="32" viewBox="0 0 28 32" fill="none" xmlns="http://www.w3.org/2000/svg">
<path fill-rule="evenodd" clip-rule="evenodd" d="M11.903 0.58081C12.5407 0.200303 13.2639 0 14 0C14.7361 0 15.4593 0.20032 16.0971 0.580857L16.1 0.582601L25.9 6.38072C26.5378 6.76202 27.0676 7.31027 27.4362 7.97049C27.8048 8.63071 27.9992 9.37968 28 10.1423V21.7415C27.9992 22.5041 27.8048 23.253 27.4362 23.9133C27.0676 24.5735 26.5378 25.1217 25.9 25.503L25.8946 25.5062L16.1 31.3012L16.0975 31.3027C15.4596 31.6833 14.7363 31.8838 14 31.8838C13.2637 31.8838 12.5404 31.6834 11.9026 31.3027L11.9 31.3012L2.1054 25.5062L2.1 25.503C1.46215 25.1217 0.932358 24.5735 0.563769 23.9133C0.19518 23.253 0.000755441 22.5041 0 21.7415V10.1423C0.000755441 9.37968 0.19518 8.63071 0.563769 7.97049C0.932359 7.31027 1.46215 6.76202 2.1 6.38073L2.1054 6.3775L11.903 0.58081ZM14 2.89906C13.7542 2.89906 13.5128 2.96604 13.3 3.09326L13.2946 3.09649L3.5 8.89139L3.49779 8.89271C3.28616 9.01975 3.11036 9.202 2.98792 9.42131C2.86516 9.6412 2.80036 9.89063 2.8 10.1446V21.7391C2.80036 21.9931 2.86516 22.2425 2.98792 22.4624C3.11036 22.6818 3.28616 22.864 3.49779 22.991L3.5 22.9924L13.3 28.7905C13.5128 28.9177 13.7542 28.9847 14 28.9847C14.2457 28.9847 14.4872 28.9177 14.7 28.7905L14.7054 28.7873L24.5 22.9924L24.5022 22.991C24.7138 22.864 24.8896 22.6817 25.0121 22.4624C25.1349 22.2424 25.1997 21.9927 25.2 21.7385V10.1452C25.1997 9.89104 25.1349 9.64139 25.0121 9.42131C24.8896 9.20201 24.7138 9.01976 24.5022 8.89272L24.5 8.89139L14.7 3.09328C14.4872 2.96605 14.2458 2.89906 14 2.89906Z" fill="#E7F2F3"/>
<path fill-rule="evenodd" clip-rule="evenodd" d="M0.571195 7.90933C0.958354 7.21637 1.81477 6.97957 2.48406 7.38042L14.005 14.2807L25.526 7.38042C26.1953 6.97957 27.0517 7.21637 27.4389 7.90933C27.8261 8.6023 27.5973 9.48902 26.9281 9.88987L14.7061 17.21C14.2724 17.4697 13.7377 17.4697 13.304 17.21L1.08203 9.88987C0.412746 9.48902 0.184036 8.6023 0.571195 7.90933Z" fill="#E7F2F3"/>
<path fill-rule="evenodd" clip-rule="evenodd" d="M14 14.4897C14.7732 14.4897 15.4 15.1386 15.4 15.9392V30.5505C15.4 31.351 14.7732 32 14 32C13.2268 32 12.6 31.351 12.6 30.5505V15.9392C12.6 15.1386 13.2268 14.4897 14 14.4897Z" fill="#E7F2F3"/>
</svg>
