<svg width="32" height="32" viewBox="0 0 32 32" fill="none" xmlns="http://www.w3.org/2000/svg">
<path fill-rule="evenodd" clip-rule="evenodd" d="M16 13.3333C14.5272 13.3333 13.3333 14.5272 13.3333 16C13.3333 17.4728 14.5272 18.6667 16 18.6667C17.4728 18.6667 18.6667 17.4728 18.6667 16C18.6667 14.5272 17.4728 13.3333 16 13.3333ZM10.6667 16C10.6667 13.0545 13.0545 10.6667 16 10.6667C18.9455 10.6667 21.3333 13.0545 21.3333 16C21.3333 18.9455 18.9455 21.3333 16 21.3333C13.0545 21.3333 10.6667 18.9455 10.6667 16Z" fill="#E7F2F3"/>
<path fill-rule="evenodd" clip-rule="evenodd" d="M16 2.66667C15.6464 2.66667 15.3072 2.80714 15.0572 3.05719C14.8071 3.30724 14.6667 3.64638 14.6667 4V4.23198C14.6639 4.92106 14.4597 5.5943 14.0793 6.16882C13.6988 6.74334 13.1586 7.19407 12.5252 7.46552C12.4125 7.51384 12.2939 7.54626 12.1728 7.56209C11.5973 7.76362 10.9778 7.8133 10.3747 7.70395C9.68 7.57799 9.039 7.24683 8.53431 6.75315L8.5238 6.74287L8.44386 6.66281C8.32003 6.53884 8.17245 6.43997 8.01059 6.37287C7.84872 6.30577 7.67522 6.27124 7.5 6.27124C7.32478 6.27124 7.15128 6.30577 6.98941 6.37287C6.82755 6.43997 6.6805 6.53832 6.55667 6.66228L6.55562 6.66333C6.43165 6.78716 6.3333 6.93422 6.2662 7.09608C6.19911 7.25794 6.16457 7.43145 6.16457 7.60667C6.16457 7.78189 6.19911 7.95539 6.2662 8.11725C6.3333 8.27912 6.43165 8.42617 6.55562 8.55L6.64654 8.64092C7.14022 9.14561 7.47133 9.78667 7.59728 10.4813C7.72073 11.1622 7.64151 11.864 7.36993 12.4997C7.12252 13.1484 6.6893 13.7102 6.12406 14.1145C5.54739 14.527 4.85998 14.7564 4.15118 14.773L4.12 14.7733H4C3.64638 14.7733 3.30724 14.9138 3.05719 15.1639C2.80714 15.4139 2.66667 15.753 2.66667 16.1067C2.66667 16.4603 2.80714 16.7994 3.05719 17.0495C3.30724 17.2995 3.64638 17.44 4 17.44H4.23198C4.92106 17.4427 5.5943 17.6469 6.16882 18.0274C6.74134 18.4066 7.19093 18.9443 7.46268 19.5748C7.74544 20.219 7.82948 20.933 7.70395 21.6253C7.57799 22.32 7.24683 22.961 6.75315 23.4657L6.74286 23.4762L6.66281 23.5561C6.53884 23.68 6.43997 23.8275 6.37287 23.9894C6.30577 24.1513 6.27124 24.3248 6.27124 24.5C6.27124 24.6752 6.30577 24.8487 6.37287 25.0106C6.43997 25.1725 6.53832 25.3195 6.66228 25.4433L6.66333 25.4444C6.78716 25.5683 6.93421 25.6667 7.09608 25.7338C7.25795 25.8009 7.43145 25.8354 7.60667 25.8354C7.78189 25.8354 7.95539 25.8009 8.11725 25.7338C8.27912 25.6667 8.42617 25.5683 8.55 25.4444L8.64092 25.3535C9.14561 24.8598 9.78667 24.5287 10.4813 24.4027C11.1622 24.2793 11.8639 24.3585 12.4997 24.6301C13.1484 24.8775 13.7102 25.3107 14.1145 25.8759C14.527 26.4526 14.7564 27.14 14.773 27.8488L14.7733 27.88V28C14.7733 28.3536 14.9138 28.6928 15.1639 28.9428C15.4139 29.1929 15.753 29.3333 16.1067 29.3333C16.4603 29.3333 16.7994 29.1929 17.0495 28.9428C17.2995 28.6928 17.44 28.3536 17.44 28V27.7733L17.44 27.768C17.4428 27.0789 17.6469 26.4057 18.0274 25.8312C18.4066 25.2586 18.9444 24.809 19.575 24.5373C20.2191 24.2545 20.9331 24.1705 21.6253 24.2961C22.32 24.422 22.961 24.7532 23.4657 25.2468L23.4762 25.2571L23.5561 25.3372C23.68 25.4612 23.8276 25.56 23.9894 25.6271C24.1513 25.6942 24.3248 25.7288 24.5 25.7288C24.6752 25.7288 24.8487 25.6942 25.0106 25.6271C25.1725 25.56 25.3195 25.4617 25.4433 25.3377L25.4444 25.3367C25.5684 25.2128 25.6667 25.0658 25.7338 24.9039C25.8009 24.7421 25.8354 24.5686 25.8354 24.3933C25.8354 24.2181 25.8009 24.0446 25.7338 23.8827C25.6667 23.7209 25.5683 23.5738 25.4444 23.45L25.3535 23.3591C24.8598 22.8544 24.5287 22.2133 24.4027 21.5187C24.2772 20.8264 24.3612 20.1125 24.6439 19.4683C24.9157 18.8377 25.3653 18.2999 25.9378 17.9207C26.5124 17.5403 27.1856 17.3361 27.8747 17.3333L27.88 17.3333L28 17.3333C28.3536 17.3333 28.6928 17.1929 28.9428 16.9428C29.1929 16.6928 29.3333 16.3536 29.3333 16C29.3333 15.6464 29.1929 15.3072 28.9428 15.0572C28.6928 14.8071 28.3536 14.6667 28 14.6667H27.7733L27.768 14.6667C27.0789 14.6639 26.4057 14.4597 25.8312 14.0793C25.2567 13.6988 24.8059 13.1586 24.5345 12.5252C24.4862 12.4125 24.4537 12.2939 24.4379 12.1728C24.2364 11.5973 24.1867 10.9778 24.2961 10.3747C24.422 9.68001 24.7532 9.039 25.2468 8.53431L25.2571 8.5238L25.3372 8.44386C25.4612 8.32003 25.56 8.17245 25.6271 8.01059C25.6942 7.84872 25.7288 7.67522 25.7288 7.5C25.7288 7.32478 25.6942 7.15128 25.6271 6.98941C25.56 6.82755 25.4617 6.6805 25.3377 6.55667L25.3367 6.55562C25.2128 6.43165 25.0658 6.3333 24.9039 6.2662C24.7421 6.19911 24.5686 6.16457 24.3933 6.16457C24.2181 6.16457 24.0446 6.19911 23.8827 6.2662C23.7209 6.3333 23.5738 6.43165 23.45 6.55562L23.3591 6.64654C22.8544 7.14022 22.2133 7.47133 21.5187 7.59728C20.8263 7.72281 20.1123 7.63877 19.4682 7.35602C18.8376 7.08427 18.2999 6.63468 17.9207 6.06215C17.5403 5.48763 17.3361 4.8144 17.3333 4.12532L17.3333 4.12V4C17.3333 3.64638 17.1929 3.30724 16.9428 3.05719C16.6928 2.80714 16.3536 2.66667 16 2.66667ZM13.1716 1.17157C13.9217 0.421428 14.9391 0 16 0C17.0609 0 18.0783 0.421428 18.8284 1.17157C19.5786 1.92172 20 2.93913 20 4V4.11666C20.0011 4.28499 20.0511 4.44939 20.1441 4.58976C20.2374 4.73068 20.3699 4.84123 20.5252 4.90781L20.5384 4.91345C20.6968 4.98337 20.8725 5.00429 21.0429 4.9734C21.2114 4.94284 21.3671 4.86305 21.4902 4.74415L21.5633 4.67105C21.9348 4.29914 22.376 4.00411 22.8616 3.80281C23.3472 3.60151 23.8677 3.4979 24.3933 3.4979C24.919 3.4979 25.4395 3.60151 25.9251 3.80281C26.4107 4.00411 26.8518 4.29914 27.2233 4.67105C27.5947 5.04232 27.8894 5.4831 28.0905 5.96824C28.2918 6.45383 28.3954 6.97434 28.3954 7.5C28.3954 8.02566 28.2918 8.54617 28.0905 9.03176C27.8893 9.51713 27.5945 9.95809 27.2228 10.3295L27.1492 10.4031C27.0303 10.5262 26.9505 10.6819 26.9199 10.8504C26.889 11.0208 26.9099 11.1966 26.9798 11.355C27.0175 11.4404 27.046 11.5292 27.065 11.6201C27.1281 11.7131 27.209 11.7933 27.3036 11.8559C27.444 11.9489 27.6083 11.9989 27.7767 12H28C29.0609 12 30.0783 12.4214 30.8284 13.1716C31.5786 13.9217 32 14.9391 32 16C32 17.0609 31.5786 18.0783 30.8284 18.8284C30.0783 19.5786 29.0609 20 28 20H27.8833C27.715 20.0011 27.5506 20.0511 27.4102 20.1441C27.2693 20.2374 27.1588 20.3699 27.0922 20.5252L27.0866 20.5384C27.0166 20.6968 26.9957 20.8725 27.0266 21.0429C27.0572 21.2114 27.1369 21.3671 27.2558 21.4902L27.329 21.5633C27.7006 21.9347 27.996 22.3762 28.1972 22.8616C28.3985 23.3472 28.5021 23.8677 28.5021 24.3933C28.5021 24.919 28.3985 25.4395 28.1972 25.9251C27.9959 26.4107 27.7009 26.8518 27.329 27.2233L26.3867 26.28L27.33 27.2223C26.9585 27.5942 26.5174 27.8892 26.0318 28.0905C25.5462 28.2918 25.0257 28.3954 24.5 28.3954C23.9743 28.3954 23.4538 28.2918 22.9682 28.0905C22.4829 27.8893 22.0419 27.5945 21.6705 27.2228L21.5969 27.1492C21.4737 27.0303 21.3181 26.9505 21.1496 26.9199C20.9792 26.889 20.8034 26.9099 20.645 26.9798L20.6319 26.9856C20.4766 27.0522 20.3441 27.1627 20.2507 27.3036C20.1578 27.444 20.1077 27.6083 20.1067 27.7767V28C20.1067 29.0609 19.6852 30.0783 18.9351 30.8284C18.1849 31.5786 17.1675 32 16.1067 32C15.0458 32 14.0284 31.5786 13.2782 30.8284C12.5281 30.0783 12.1067 29.0609 12.1067 28V27.8992C12.1003 27.7296 12.0444 27.5654 11.9455 27.4273C11.8444 27.2858 11.703 27.1781 11.5398 27.118C11.5134 27.1084 11.4873 27.0978 11.4616 27.0865C11.3032 27.0166 11.1275 26.9957 10.9571 27.0266C10.7886 27.0572 10.6329 27.137 10.5097 27.2559L10.4367 27.329C10.0653 27.7006 9.62379 27.996 9.13843 28.1972C8.65284 28.3985 8.13233 28.5021 7.60667 28.5021C7.081 28.5021 6.5605 28.3985 6.07491 28.1972C5.58977 27.9961 5.14899 27.7014 4.77772 27.33C4.40581 26.9585 4.11077 26.5174 3.90948 26.0318C3.70818 25.5462 3.60457 25.0257 3.60457 24.5C3.60457 23.9743 3.70818 23.4538 3.90948 22.9682C4.11077 22.4826 4.40581 22.0415 4.77772 21.67L4.85081 21.5969C4.96971 21.4737 5.04951 21.3181 5.08006 21.1496C5.11096 20.9792 5.0901 20.8034 5.02018 20.645L5.01441 20.6319C4.94783 20.4766 4.83734 20.3441 4.69642 20.2507C4.55605 20.1578 4.39166 20.1077 4.22333 20.1067H4C2.93913 20.1067 1.92172 19.6852 1.17157 18.9351C0.421428 18.1849 0 17.1675 0 16.1067C0 15.0458 0.421428 14.0284 1.17157 13.2782C1.92172 12.5281 2.93913 12.1067 4 12.1067H4.10085C4.27045 12.1003 4.43455 12.0444 4.57274 11.9455C4.71418 11.8444 4.82192 11.703 4.88195 11.5398C4.89165 11.5134 4.90217 11.4873 4.91352 11.4616C4.98344 11.3032 5.00429 11.1275 4.9734 10.9571C4.94284 10.7886 4.86304 10.6329 4.74413 10.5097L4.67105 10.4367C4.29914 10.0652 4.00411 9.62402 3.80281 9.13843C3.60151 8.65284 3.4979 8.13233 3.4979 7.60667C3.4979 7.081 3.60151 6.5605 3.80281 6.07491C4.00401 5.58954 4.29887 5.14857 4.67052 4.77719C5.04191 4.40553 5.48287 4.11068 5.96824 3.90948C6.45383 3.70818 6.97434 3.60457 7.5 3.60457C8.02566 3.60457 8.54617 3.70818 9.03176 3.90948C9.51735 4.11077 9.95851 4.40581 10.33 4.77772L10.4031 4.8508C10.5262 4.9697 10.6819 5.04951 10.8504 5.08006C11.0208 5.11096 11.1966 5.0901 11.355 5.02018C11.4404 4.9825 11.5292 4.95399 11.6201 4.93496C11.7131 4.87186 11.7933 4.79098 11.8559 4.69642C11.9489 4.55605 11.9989 4.39166 12 4.22333V4C12 2.93913 12.4214 1.92172 13.1716 1.17157Z" fill="#E7F2F3"/>
</svg>
